# xmcd
#
# Track frame offsets:
# 150
# 15830
# 31719
# 47998
# 68883
# 85512
# 100252
# 114581
# 139255
# 159533
# 181977
# 205839
#
# Disc length: 3022 seconds
#
#
# Revision: 1
# Processed by: cddbd v1.5.2PL0 Copyright (c) Steve Scherf et al.
# Submitted via: FreeRIP 2.941 
#
DISCID=930bcc0c
DTITLE=Pino Daniele - Boogie Boogie Man
DYEAR=2010
DGENRE=Blues
TTITLE0=Boogie Boogie Man
TTITLE1=It's A Beautiful Day
TTITLE2=Back Home
TTITLE3=Siente Fa Accussì
TTITLE4=Je So' Pazzo
TTITLE5=Napule E'
TTITLE6=Chi Tene 'O Mare
TTITLE7=Io Per Lei
TTITLE8=A Me Me Piace 'O Blues
TTITLE9=Ue Man!
TTITLE10=Che Dio Ti Benedica
TTITLE11=Nun Me Scuccia'
EXTD=
EXTT0=
EXTT1=
EXTT2=
EXTT3=
EXTT4=
EXTT5=
EXTT6=
EXTT7=
EXTT8=
EXTT9=
EXTT10=
EXTT11=
PLAYORDER=
